<?xml version="1.0" standalone="no"?>
<!DOCTYPE svg PUBLIC "-//W3C//DTD SVG 20010904//EN"
 "http://www.w3.org/TR/2001/REC-SVG-20010904/DTD/svg10.dtd">
<svg version="1.0" xmlns="http://www.w3.org/2000/svg"
 width="152.000000pt" height="152.000000pt" viewBox="0 0 152.000000 152.000000"
 preserveAspectRatio="xMidYMid meet">
<metadata>
Created by potrace 1.11, written by Peter Selinger 2001-2013
</metadata>
<g transform="translate(0.000000,152.000000) scale(0.100000,-0.100000)"
fill="#000000" stroke="none">
<path d="M643 1502 c-102 -36 -195 -129 -250 -248 -22 -48 -27 -73 -26 -134 0
-66 4 -84 36 -150 41 -83 72 -140 135 -247 23 -39 42 -77 42 -83 0 -7 -13 -30
-29 -53 -26 -38 -113 -176 -170 -270 l-23 -38 70 -117 c38 -64 75 -127 81
-139 7 -13 16 -23 20 -23 5 0 58 79 117 175 60 96 111 175 114 174 6 0 14 -12
129 -199 88 -142 101 -158 114 -137 4 6 42 70 84 140 l76 128 -69 112 c-37 62
-71 114 -76 115 -4 2 -8 8 -8 13 0 5 -16 33 -35 62 -19 28 -35 55 -35 58 0 3
34 66 75 139 127 223 147 276 138 371 -11 113 -104 254 -212 320 -76 46 -215
61 -298 31z m237 -298 c22 -9 40 -19 40 -23 0 -4 -28 -52 -61 -106 -34 -55
-69 -112 -78 -127 -9 -16 -18 -28 -21 -28 -13 1 -162 262 -153 271 5 5 42 17
82 28 78 19 111 17 191 -15z"/>
</g>
</svg>
